<?xml version="1.0" standalone="no"?>
<!DOCTYPE svg PUBLIC "-//W3C//DTD SVG 20000303 Stylable//EN"
"http://www.w3.org/TR/2000/03/WD-SVG-20000303/DTD/svg-20000303-stylable.dtd">
<!-- Title: model.in -->
<!-- Creator: lqn2svg Version 5.25 -->
<!-- Sun Feb 19 11:30:22 2023 -->
<!-- For: xeder -->
<!-- Invoked as: lqn2svg model.in -->
<svg xmlns="http://www.w3.org/2000/svg" width="1.5in" height="3.01389in" viewBox="0 0 2700 5425">
<desc>0x55a468b4f680</desc>
<!-- ========== Open Arrival Source s1 ========== -->
<circle cx="1350" cy="1013" r="125"  fill="#ffffff" stroke="black" stroke-width="25"/>
<!-- Call s1 s1 -->
<line x1="1354.49" y1="1137.42" x2="1418.75" y2="2925" stroke="black" stroke-width="25"/>
<polygon fill="White" stroke="black" stroke-width="25" points="1418.75,2925 1463.33,2773.3 1414.26,2800.08 1363.39,2776.89 "/>
<text x="1381" y="1981" font-family="Times" font-style="Roman" font-size="225" fill="black" text-anchor="middle">&#0955;=1</text>
<!-- Task Servern  s1 -1 cpu -->
<polygon  fill="#ffffff" stroke="black" stroke-width="25" points="655,2925 2250,2925 2045,4975 450,4975 "/>
<text x="1350" y="3944" font-family="Times" font-style="Roman" font-size="225" fill="black" text-anchor="middle">Server</text>
<!-- Entry s1 A ui -->
<polyline  stroke="black" stroke-width="25" fill="none" points="923.75,2925 856.25,3600 1913.75,3600 1981.25,2925 "/>
<text x="1419" y="3356" font-family="Times" font-style="Roman" font-size="225" fill="black" text-anchor="middle">s1</text>
<line x1="1418.75" y1="3600" x2="1217.5" y2="4050" stroke="black" stroke-width="25"/>
<polygon fill="black" stroke="black" stroke-width="25" points="1217.5,4050 1324.38,3933.48 1268.53,3935.89 1233.09,3892.66 "/>
<!-- Activity ui s [0.5] level=1 -->
<polygon  fill="#ffffff" stroke="black" stroke-width="25" points="692.5,4725 692.5,4050 1742.5,4050 1742.5,4725 692.5,4725 "/>
<text x="1218" y="4575" font-family="Times" font-style="Roman" font-size="225" fill="black" text-anchor="middle">[0.5]</text>
<text x="1218" y="4350" font-family="Times" font-style="Roman" font-size="225" fill="black" text-anchor="middle">ui</text>
</svg>
