<?xml version="1.0" standalone="no"?>
<!DOCTYPE svg PUBLIC "-//W3C//DTD SVG 20000303 Stylable//EN"
"http://www.w3.org/TR/2000/03/WD-SVG-20000303/DTD/svg-20000303-stylable.dtd">
<!-- Title: model.in -->
<!-- Creator: lqn2svg Version 5.25 -->
<!-- Thu Feb 23 09:47:22 2023 -->
<!-- For: xeder -->
<!-- Invoked as: lqn2svg model.in -->
<svg xmlns="http://www.w3.org/2000/svg" width="2.625in" height="3.875in" viewBox="0 0 4725 6975">
<desc>0x557c14929770</desc>
<!-- ========== Open Arrival Source ui ========== -->
<circle cx="2363" cy="1013" r="125"  fill="#ffffff" stroke="black" stroke-width="25"/>
<!-- Call ui ui -->
<line x1="2363.97" y1="1137.49" x2="2385" y2="2925" stroke="black" stroke-width="25"/>
<polygon fill="White" stroke="black" stroke-width="25" points="2385,2925 2433.23,2774.42 2383.53,2800.01 2333.24,2775.6 "/>
<text x="2373" y="1981" font-family="Times" font-style="Roman" font-size="225" fill="black" text-anchor="middle">&#0955;=0.2</text>
<!-- Task UIn  ui -1 CPU -->
<polygon  fill="#ffffff" stroke="black" stroke-width="25" points="1575,2925 3262.5,2925 3150,4050 1462.5,4050 "/>
<text x="2363" y="3919" font-family="Times" font-style="Roman" font-size="225" fill="black" text-anchor="middle">UI</text>
<!-- Entry ui s [0.5] -->
<polyline  stroke="black" stroke-width="25" fill="none" points="1890,2925 1822.5,3600 2880,3600 2947.5,2925 "/>
<text x="2385" y="3450" font-family="Times" font-style="Roman" font-size="225" fill="black" text-anchor="middle">[0.5]</text>
<text x="2385" y="3225" font-family="Times" font-style="Roman" font-size="225" fill="black" text-anchor="middle">ui</text>
<!-- Call ui auth y (1) -->
<line x1="2197.5" y1="3600" x2="1372.5" y2="5400" stroke="black" stroke-width="25"/>
<polygon fill="black" stroke="black" stroke-width="25" points="1372.5,5400 1480.45,5284.47 1424.58,5286.37 1389.54,5242.81 "/>
<text x="1579" y="5044" font-family="Times" font-style="Roman" font-size="225" fill="black" text-anchor="middle">(1)</text>
<!-- Call ui t2 y (1) -->
<line x1="2572.5" y1="3600" x2="3397.5" y2="5400" stroke="black" stroke-width="25"/>
<polygon fill="black" stroke="black" stroke-width="25" points="3397.5,5400 3380.46,5242.81 3345.42,5286.37 3289.55,5284.47 "/>
<text x="3191" y="5044" font-family="Times" font-style="Roman" font-size="225" fill="black" text-anchor="middle">(1)</text>
<!-- Task Authn  auth -1 CPU -->
<polygon  fill="#ffffff" stroke="black" stroke-width="25" points="562.5,5400 2250,5400 2137.5,6525 450,6525 "/>
<text x="1350" y="6394" font-family="Times" font-style="Roman" font-size="225" fill="black" text-anchor="middle">Auth</text>
<!-- Entry auth s [0.5] -->
<polyline  stroke="black" stroke-width="25" fill="none" points="877.5,5400 810,6075 1867.5,6075 1935,5400 "/>
<text x="1373" y="5925" font-family="Times" font-style="Roman" font-size="225" fill="black" text-anchor="middle">[0.5]</text>
<text x="1373" y="5700" font-family="Times" font-style="Roman" font-size="225" fill="black" text-anchor="middle">auth</text>
<!-- Task T2n  t2 -1 CPU -->
<polygon  fill="#ffffff" stroke="black" stroke-width="25" points="2587.5,5400 4275,5400 4162.5,6525 2475,6525 "/>
<text x="3375" y="6394" font-family="Times" font-style="Roman" font-size="225" fill="black" text-anchor="middle">T2</text>
<!-- Entry t2 s [0.3] -->
<polyline  stroke="black" stroke-width="25" fill="none" points="2902.5,5400 2835,6075 3892.5,6075 3960,5400 "/>
<text x="3398" y="5925" font-family="Times" font-style="Roman" font-size="225" fill="black" text-anchor="middle">[0.3]</text>
<text x="3398" y="5700" font-family="Times" font-style="Roman" font-size="225" fill="black" text-anchor="middle">t2</text>
</svg>
